<svg width="24" height="24" fill="none" xmlns="http://www.w3.org/2000/svg"><g clip-path="url(#a)"><path fill-rule="evenodd" clip-rule="evenodd" d="M23.95 2.53a.51.51 0 0 0-.35-.38 1.8 1.8 0 0 0-.94.06S1.63 9.77.43 10.61c-.26.18-.35.29-.39.4-.2.6.44.87.44.87l5.42 1.76c.1.02.19.01.28-.01 1.23-.78 12.4-7.84 13.04-8.07.1-.03.18 0 .16.07-.26.9-9.9 9.48-9.96 9.53a.2.2 0 0 0-.07.18l-.5 5.29s-.22 1.65 1.43 0a46.17 46.17 0 0 1 2.85-2.6 74.21 74.21 0 0 1 4.73 3.45 1.5 1.5 0 0 0 1.1.42 1.24 1.24 0 0 0 1.05-.93s3.83-15.43 3.96-17.5l.03-.46c0-.16 0-.33-.05-.48Z" fill="#BBB"/></g><defs><clipPath id="a"><path fill="#fff" d="M0 0h24v24H0z"/></clipPath></defs></svg>